<svg version="1.2" xmlns="http://www.w3.org/2000/svg" viewBox="0 0 800 800" width="800" height="800">
	<title>New Project</title>
	<defs>
		<radialGradient id="g1" cx="0" cy="0" r="1" gradientUnits="userSpaceOnUse" gradientTransform="matrix(33.595,0,0,33.595,477.914,360.467)">
			<stop offset="0" stop-color="#f29788"/>
			<stop offset=".612" stop-color="#f2a388"/>
			<stop offset=".92" stop-color="#f2ab88"/>
		</radialGradient>
		<radialGradient id="g2" cx="0" cy="0" r="1" gradientUnits="userSpaceOnUse" gradientTransform="matrix(-33.595,0,0,-33.595,311.712,360.467)">
			<stop offset="0" stop-color="#f29788"/>
			<stop offset=".612" stop-color="#f2a388"/>
			<stop offset=".92" stop-color="#f2ab88"/>
		</radialGradient>
		<radialGradient id="g3" cx="0" cy="0" r="1" gradientUnits="userSpaceOnUse" gradientTransform="matrix(33.46,0,0,33.46,476.874,360.678)">
			<stop offset="0" stop-color="#f29788"/>
			<stop offset=".612" stop-color="#f2a388"/>
			<stop offset=".92" stop-color="#f2ab88"/>
		</radialGradient>
		<radialGradient id="g4" cx="0" cy="0" r="1" gradientUnits="userSpaceOnUse" gradientTransform="matrix(-33.46,0,0,-33.46,311.339,360.678)">
			<stop offset="0" stop-color="#f29788"/>
			<stop offset=".612" stop-color="#f2a388"/>
			<stop offset=".92" stop-color="#f2ab88"/>
		</radialGradient>
	</defs>
	<style>
		.s0 { fill: #f2ab88 } 
		.s1 { fill: #33b5b7 } 
		.s2 { opacity: .55;fill: #dcb890 } 
		.s3 { fill: #db7a5b } 
		.s4 { fill: #995235 } 
		.s5 { opacity: .35;fill: #995235 } 
		.s6 { opacity: .5;fill: #995235 } 
		.s7 { fill: #fdfaee } 
		.s8 { fill: #e78660 } 
		.s9 { fill: #633837 } 
		.s10 { fill: #321413 } 
		.s11 { fill: #ce7959 } 
		.s12 { fill: #884627 } 
		.s13 { fill: url(#g1) } 
		.s14 { fill: url(#g2) } 
		.s15 { fill: #dcb890 } 
		.s16 { fill: url(#g3) } 
		.s17 { fill: url(#g4) } 
		.s18 { fill: #9f1818 } 
		.s19 { fill: #ae593b } 
	</style>
	<path class="s0" d="m730.8 623.1c-20.9-43.8-160.7-25-217-48-56.4-22.9-56.4-133.5-56.4-133.5h-62.6-62.6c0 0 0 110.6-56.3 133.5-56.4 23-196.2 4.2-217 48-20.9 43.8-35.5 106.4-43.8 148.2h759.5c-8.4-41.8-23-104.4-43.8-148.2z"/>
	<path id="Layer copy 17" class="s0" d="m730.8 623.1c-20.9-43.8-160.7-25-217-48-56.4-22.9-56.4-133.5-56.4-133.5h-62.6-62.6c0 0 0 110.6-56.3 133.5-56.4 23-196.2 4.2-217 48-20.9 43.8-35.5 106.4-43.8 148.2h759.5c-8.4-41.8-23-104.4-43.8-148.2z"/>
	<path class="s1" d="m736.3 623.1c-19.1-39.8-136.9-27.9-200.7-42.6-55 28.5-100.7 38.5-137.9 38.9-37.2-0.4-82.9-10.4-137.9-38.9-63.8 14.7-181.6 2.8-200.7 42.6-21 43.8-35.6 106.4-44 148.2h765.2c-8.4-41.8-23-104.4-44-148.2z"/>
	<path id="Layer copy 15" class="s1" d="m736.3 623.1c-19.1-39.8-136.9-27.9-200.7-42.6-55 28.5-100.7 38.5-137.9 38.9-37.2-0.4-82.9-10.4-137.9-38.9-63.8 14.7-181.6 2.8-200.7 42.6-21 43.8-35.6 106.4-44 148.2h765.2c-8.4-41.8-23-104.4-44-148.2z"/>
	<path class="s2" d="m389.3 562.4c56.4 0 81.9-18.3 89.2-22.7-21.1-40.7-21.1-98.1-21.1-98.1h-125.2c0 0 0 61.7-23.5 102.5 3.9 1.6 45.9 18.3 80.6 18.3z"/>
	<path id="Layer copy 16" class="s2" d="m389.3 562.4c56.4 0 81.9-18.3 89.2-22.7-21.1-40.7-21.1-98.1-21.1-98.1h-125.2c0 0 0 61.7-23.5 102.5 3.9 1.6 45.9 18.3 80.6 18.3z"/>
	<path class="s0" d="m211.5 317.3c20.6-27.9 67.3 17.5 67.3 17.5 0 0 29 33.9-4.8 74.8-16.9 20.5-36.3 5-49.4-19.3-13-24.4-27.8-53.1-13.1-73z"/>
	<path class="s3" d="m241.1 393.1c4.6 4.6 10.3 8.3 17.2 7.1 2.9-0.6 5.5-4.8 4.8-7.3-2-6-21.3-16.8-16.5-33.7 4.9-17.1-16.8-33.4-23.6-24-5.2 7.3 1.1 40.7 18.1 57.9z"/>
	<path class="s0" d="m577.9 317.3c-20.6-27.9-67.2 17.5-67.2 17.5 0 0-29 33.9 4.7 74.8 16.9 20.5 36.4 5 49.4-19.3 13.1-24.4 27.8-53.1 13.1-73z"/>
	<path class="s3" d="m548.3 393.1c-4.5 4.6-10.3 8.3-17.1 7.1-2.9-0.6-5.6-4.8-4.8-7.3 1.9-6 21.2-16.8 16.4-33.7-4.8-17.1 16.9-33.4 23.6-24 5.3 7.3-1.1 40.7-18.1 57.9z"/>
	<path class="s0" d="m547.2 184.9c-4.1-22.8-19.7-42.1-39.5-57.9-66.1-52.8-158.9-52.8-225.1 0-19.7 15.8-35.3 35.1-39.4 57.9 0 0-9.7 179.4 35.1 248.2 34.6 53.3 78.3 82.2 116.9 82.2 38.6 0 82.2-28.9 116.9-82.2 44.7-68.8 35.1-248.2 35.1-248.2z"/>
	<path class="s4" d="m258.6 329.1c-5-78.5 3.5-136.8 8-143.7 16.2-13.1 38.2-35.7 52.1-69.3 0 0 64.5 31.3 166.6 18.8 0 0 19 26.7 36.2 54.2 8.3 13.3 11.9 90 9.6 139.7-0.3 7.4 2.5 14.5 7.8 19.3l3.4 3.1c12.6-25.5 25-132.9 18.7-168.4-18-100-90.3-110.5-162.3-110.5-28.2 0-59.6 6.7-86.7 19.8-5.6-1.6-14-3.6-13.8-4.7-38.5 2.6-58.3 57.3-69.6 95.4-11.5 38.6 6.1 142.9 18.7 168.4l0.1-0.1c7.4-4.6 11.7-13.1 11.2-22z"/>
	<path class="s5" d="m300.2 127.3q5.4 2.3 10.7 4.9c2.8-5.1 5.4-10.4 7.8-16.1 0 0 64.5 31.3 166.6 18.8 0 0 16.1 22.7 32.1 47.7 16.8-5.4 26.8-10.1 39.3-18.4-23.3-82.7-90.8-91.9-158-91.9-28.2 0-59.6 6.7-86.7 19.8-5.6-1.6-14-3.6-13.8-4.7-11.8 0.8-21.7 6.5-30.2 15q0.1 0.2 0.3 0.5c8.5 10.6 19.4 18.9 31.9 24.4z"/>
	<path class="s4" d="m564.2 68.2c0 35.2-57.7 20.4-133.1-22.2-73.9-41.7-110.6-5.5-125.5 18.5 3.7-25.2 17.3-48.1 17.3-48.1-38.3 18.1-35.7 49.2-30.6 66.5-13.7-2.8-34.1-3.4-50 10.7 0 0 39.1-6.1 53.5 6.3 1.8 1.6 7.9 4.4 8.6 5 40.4 44.5 80.3 66.1 163.6 60.1 46-3.3 61.3-8.7 83.2-32.1 25.9-27.7 13-64.7 13-64.7z"/>
	<path id="Layer copy 2" class="s4" d="m258.6 329.1c-5-78.5 3.5-136.8 8-143.7 16.2-13.1 38.2-35.7 52.1-69.3 0 0 64.5 31.3 166.6 18.8 0 0 19 26.7 36.2 54.2 8.3 13.3 11.9 90 9.6 139.7-0.3 7.4 2.5 14.5 7.8 19.3l3.4 3.1c12.6-25.5 25-132.9 18.7-168.4-18-100-90.3-110.5-162.3-110.5-28.2 0-59.6 6.7-86.7 19.8-5.6-1.6-14-3.6-13.8-4.7-38.5 2.6-58.3 57.3-69.6 95.4-11.5 38.6 6.1 142.9 18.7 168.4l0.1-0.1c7.4-4.6 11.7-13.1 11.2-22z"/>
	<path id="Layer copy 3" class="s4" d="m564.2 68.2c0 35.2-57.7 20.4-133.1-22.2-73.9-41.7-110.6-5.5-125.5 18.5 3.7-25.2 17.3-48.1 17.3-48.1-38.3 18.1-35.7 49.2-30.6 66.5-13.7-2.8-34.1-3.4-50 10.7 0 0 39.1-6.1 53.5 6.3 1.8 1.6 7.9 4.4 8.6 5 40.4 44.5 80.3 66.1 163.6 60.1 46-3.3 61.3-8.7 83.2-32.1 25.9-27.7 13-64.7 13-64.7z"/>
	<path class="s6" d="m468 165c43.3-3.1 59.4-8.1 79.4-28.2-29.8 2.5-63.3-10.1-86.3-30.7-0.8 11.5 4.9 26.8 20.2 44.4-36.7-6.2-69.3-17.6-99.9-42.1 6.1 12.2 12.3 32.5 18.4 38.6-19 0-69.5-22.1-80.9-27.2 36.1 34.3 75.8 50.5 149.1 45.2z"/>
	<path id="Layer copy 4" class="s4" d="m258.6 329.1c-5-78.5 3.5-136.8 8-143.7 16.2-13.1 38.2-35.7 52.1-69.3 0 0 64.5 31.3 166.6 18.8 0 0 19 26.7 36.2 54.2 8.3 13.3 11.9 90 9.6 139.7-0.3 7.4 2.5 14.5 7.8 19.3l3.4 3.1c12.6-25.5 25-132.9 18.7-168.4-18-100-90.3-110.5-162.3-110.5-28.2 0-59.6 6.7-86.7 19.8-5.6-1.6-14-3.6-13.8-4.7-38.5 2.6-58.3 57.3-69.6 95.4-11.5 38.6 6.1 142.9 18.7 168.4l0.1-0.1c7.4-4.6 11.7-13.1 11.2-22z"/>
	<path id="Layer copy 5" class="s4" d="m564.2 68.2c0 35.2-57.7 20.4-133.1-22.2-73.9-41.7-110.6-5.5-125.5 18.5 3.7-25.2 17.3-48.1 17.3-48.1-38.3 18.1-35.7 49.2-30.6 66.5-13.7-2.8-34.1-3.4-50 10.7 0 0 39.1-6.1 53.5 6.3 1.8 1.6 7.9 4.4 8.6 5 40.4 44.5 80.3 66.1 163.6 60.1 46-3.3 61.3-8.7 83.2-32.1 25.9-27.7 13-64.7 13-64.7z"/>
	<path id="Layer copy 6" class="s6" d="m468 165c43.3-3.1 59.4-8.1 79.4-28.2-29.8 2.5-63.3-10.1-86.3-30.7-0.8 11.5 4.9 26.8 20.2 44.4-36.7-6.2-69.3-17.6-99.9-42.1 6.1 12.2 12.3 32.5 18.4 38.6-19 0-69.5-22.1-80.9-27.2 36.1 34.3 75.8 50.5 149.1 45.2z"/>
	<path id="Layer copy 7" class="s4" d="m258.6 329.1c-5-78.5 3.5-136.8 8-143.7 16.2-13.1 38.2-35.7 52.1-69.3 0 0 64.5 31.3 166.6 18.8 0 0 19 26.7 36.2 54.2 8.3 13.3 11.9 90 9.6 139.7-0.3 7.4 2.5 14.5 7.8 19.3l3.4 3.1c12.6-25.5 25-132.9 18.7-168.4-18-100-90.3-110.5-162.3-110.5-28.2 0-59.6 6.7-86.7 19.8-5.6-1.6-14-3.6-13.8-4.7-38.5 2.6-58.3 57.3-69.6 95.4-11.5 38.6 6.1 142.9 18.7 168.4l0.1-0.1c7.4-4.6 11.7-13.1 11.2-22z"/>
	<path id="Layer copy 8" class="s4" d="m564.2 68.2c0 35.2-57.7 20.4-133.1-22.2-73.9-41.7-110.6-5.5-125.5 18.5 3.7-25.2 17.3-48.1 17.3-48.1-38.3 18.1-35.7 49.2-30.6 66.5-13.7-2.8-34.1-3.4-50 10.7 0 0 39.1-6.1 53.5 6.3 1.8 1.6 7.9 4.4 8.6 5 40.4 44.5 80.3 66.1 163.6 60.1 46-3.3 61.3-8.7 83.2-32.1 25.9-27.7 13-64.7 13-64.7z"/>
	<path id="Layer copy 9" class="s6" d="m468 165c43.3-3.1 59.4-8.1 79.4-28.2-29.8 2.5-63.3-10.1-86.3-30.7-0.8 11.5 4.9 26.8 20.2 44.4-36.7-6.2-69.3-17.6-99.9-42.1 6.1 12.2 12.3 32.5 18.4 38.6-19 0-69.5-22.1-80.9-27.2 36.1 34.3 75.8 50.5 149.1 45.2z"/>
	<path id="Layer copy 10" class="s0" d="m547.2 184.9c-4.1-22.8-19.7-42.1-39.5-57.9-66.1-52.8-158.9-52.8-225.1 0-19.7 15.8-35.3 35.1-39.4 57.9 0 0-9.7 179.4 35.1 248.2 34.6 53.3 78.3 82.2 116.9 82.2 38.6 0 82.2-28.9 116.9-82.2 44.7-68.8 35.1-248.2 35.1-248.2z"/>
	<path id="Layer copy 18" class="s0" d="m547.2 184.9c-4.1-22.8-19.7-42.1-39.5-57.9-66.1-52.8-158.9-52.8-225.1 0-19.7 15.8-35.3 35.1-39.4 57.9 0 0-9.7 179.4 35.1 248.2 34.6 53.3 78.3 82.2 116.9 82.2 38.6 0 82.2-28.9 116.9-82.2 44.7-68.8 35.1-248.2 35.1-248.2z"/>
	<path id="Layer copy 11" class="s4" d="m258.6 329.1c-5-78.5 3.5-136.8 8-143.7 16.2-13.1 38.2-35.7 52.1-69.3 0 0 64.5 31.3 166.6 18.8 0 0 19 26.7 36.2 54.2 8.3 13.3 11.9 90 9.6 139.7-0.3 7.4 2.5 14.5 7.8 19.3l3.4 3.1c12.6-25.5 25-132.9 18.7-168.4-18-100-90.3-110.5-162.3-110.5-28.2 0-59.6 6.7-86.7 19.8-5.6-1.6-14-3.6-13.8-4.7-38.5 2.6-58.3 57.3-69.6 95.4-11.5 38.6 6.1 142.9 18.7 168.4l0.1-0.1c7.4-4.6 11.7-13.1 11.2-22z"/>
	<path id="Layer copy 12" class="s4" d="m564.2 68.2c0 35.2-57.7 20.4-133.1-22.2-73.9-41.7-110.6-5.5-125.5 18.5 3.7-25.2 17.3-48.1 17.3-48.1-38.3 18.1-35.7 49.2-30.6 66.5-13.7-2.8-34.1-3.4-50 10.7 0 0 39.1-6.1 53.5 6.3 1.8 1.6 7.9 4.4 8.6 5 40.4 44.5 80.3 66.1 163.6 60.1 46-3.3 61.3-8.7 83.2-32.1 25.9-27.7 13-64.7 13-64.7z"/>
	<path id="Layer copy 13" class="s6" d="m468 165c43.3-3.1 59.4-8.1 79.4-28.2-29.8 2.5-63.3-10.1-86.3-30.7-0.8 11.5 4.9 26.8 20.2 44.4-36.7-6.2-69.3-17.6-99.9-42.1 6.1 12.2 12.3 32.5 18.4 38.6-19 0-69.5-22.1-80.9-27.2 36.1 34.3 75.8 50.5 149.1 45.2z"/>
	<path fill-rule="evenodd" class="s7" d="m456.6 331.1c-17.8 0-32.3-13.6-32.3-30.6 0-16.9 14.5-30.6 32.3-30.6 17.9 0 32.4 13.7 32.4 30.6 0 17-14.5 30.6-32.4 30.6z"/>
	<path class="s8" d="m468.5 322.6c-6 1.2-11.1 1.9-17.1 1.9-9.6 0-18.4-4.3-24.1-11.2 5.1 10.5 16.3 17.8 29.3 17.8 13.5 0 25-7.7 29.9-18.7-5.2 4.6-11.3 8.9-18 10.2z"/>
	<path fill-rule="evenodd" class="s9" d="m456.6 320.8c-10.4 0-18.9-8.3-18.9-18.7 0-10.3 8.5-18.7 18.9-18.7 10.5 0 19 8.4 19 18.7 0 10.4-8.5 18.7-19 18.7z"/>
	<path fill-rule="evenodd" class="s10" d="m456.6 313.5c-6.3 0-11.5-5.1-11.5-11.4 0-6.3 5.2-11.3 11.5-11.3 6.4 0 11.6 5 11.6 11.3 0 6.3-5.2 11.4-11.6 11.4z"/>
	<path class="s8" d="m435.4 291.3c7.4-2.1 15.3-3.8 23-3.2 11.9 1 21.1 4.3 30.5 11-0.8-16.2-7-34.1-32-35.8-24.2-1.6-30.8 18.7-32.4 34.1 3-2.8 6.7-5 10.9-6.1z"/>
	<path fill-rule="evenodd" class="s7" d="m330.6 331.1c-17.9 0-32.3-13.6-32.3-30.6 0-16.9 14.4-30.6 32.3-30.6 17.9 0 32.4 13.7 32.4 30.6 0 17-14.5 30.6-32.4 30.6z"/>
	<path id="Layer copy 14" fill-rule="evenodd" class="s7" d="m330.6 331.1c-17.9 0-32.3-13.6-32.3-30.6 0-16.9 14.4-30.6 32.3-30.6 17.9 0 32.4 13.7 32.4 30.6 0 17-14.5 30.6-32.4 30.6z"/>
	<path class="s8" d="m318.8 322.6c5.9 1.2 11.1 1.9 17 1.9 9.7 0 18.5-4.3 24.2-11.2-5.1 10.5-16.3 17.8-29.4 17.8-13.4 0-24.9-7.7-29.8-18.7 5.1 4.6 11.2 8.9 18 10.2z"/>
	<path fill-rule="evenodd" class="s9" d="m330.6 320.8c-10.5 0-18.9-8.3-18.9-18.7 0-10.3 8.4-18.7 18.9-18.7 10.5 0 19 8.4 19 18.7 0 10.4-8.5 18.7-19 18.7z"/>
	<path fill-rule="evenodd" class="s10" d="m330.6 313.5c-6.4 0-11.5-5.1-11.5-11.4 0-6.3 5.1-11.3 11.5-11.3 6.4 0 11.5 5 11.5 11.3 0 6.3-5.1 11.4-11.5 11.4z"/>
	<path class="s8" d="m351.9 291.3c-7.4-2.1-15.4-3.8-23.1-3.2-11.9 1-21 4.3-30.5 11 0.8-16.2 7-34.1 32.1-35.8 24.2-1.6 30.7 18.7 32.4 34.1-3.1-2.8-6.7-5-10.9-6.1z"/>
	<path class="s11" d="m389.8 392.9c-4.6 0-9.4-0.9-13.3-2.5-7.1-2.8-11.5-7.4-12.5-13-1.3-7.9 23.4-116.3 23.3-116.8-0.3-1.7 0.8-3.3 2.5-3.6 1.7-0.3 3.4 0.8 3.7 2.5 0.4 2-24.2 111.7-23.3 116.9 0.5 3.3 3.7 6.2 8.6 8.2 7.6 3 17.1 2.6 21.7-0.8 1.3-1 3.3-0.8 4.3 0.6 1.1 1.4 0.8 3.3-0.6 4.4-3.8 2.9-9 4.1-14.4 4.1z"/>
	<path class="s12" d="m423.8 210.3c0 0 43.9-2.6 54.5 1.9 10.6 4.5 33.2 22.6 31.8 29.4-1.5 6.8-36.8-9.2-41.1-8.4-4.3 0.8-46 2.9-49.3-3-3.9-6.8-3.3-19.8 4.1-19.9z"/>
	<path class="s12" d="m364 211.4c0 0-43.8-4.1-54.5 0-10.7 4.2-33.7 21.4-32.4 28.3 1.3 6.9 36.9-8 41.2-7 4.3 0.9 46 4.4 49.4-1.3 4-6.7 3.7-19.7-3.7-20z"/>
	<path id="Layer copy" class="s12" d="m364 211.4c0 0-43.8-4.1-54.5 0-10.7 4.2-33.7 21.4-32.4 28.3 1.3 6.9 36.9-8 41.2-7 4.3 0.9 46 4.4 49.4-1.3 4-6.7 3.7-19.7-3.7-20z"/>
	<path class="s7" d="m342.8 297.6c0 2.1-1.7 3.8-3.7 3.8-2.1 0-3.8-1.7-3.8-3.8 0-2 1.7-3.7 3.8-3.7 2 0 3.7 1.7 3.7 3.7z"/>
	<path fill-rule="evenodd" class="s7" d="m463.7 301.4c-2 0-3.7-1.7-3.7-3.8 0-2 1.7-3.7 3.7-3.7 2.1 0 3.7 1.7 3.7 3.7 0 2.1-1.6 3.8-3.7 3.8z"/>
	<path class="s11" d="m458.5 402.5c-3.5-0.4-4.9-4.9-4.9-5-0.5-1.7-2.2-2.7-3.8-2.2-1.7 0.4-2.7 2.2-2.3 3.8 0.3 1.1 0.9 2.5 1.8 3.9-54.6 43.1-107.9 5.8-115.9-0.3 0.7-1.3 1.2-2.6 1.5-3.6 0.4-1.6-0.5-3.3-2.2-3.8-1.7-0.5-3.4 0.5-3.9 2.2 0 0-1.3 4.6-4.9 4.9-1.7 0.2-2.9 1.7-2.8 3.5 0.2 1.6 1.5 2.8 3.1 2.8q0.2 0 0.3 0c1.7-0.2 3.2-0.7 4.5-1.5 4.1 3.1 30.7 22.3 65 22.3 18.4 0 39.1-5.6 59.8-22.1 1.2 0.7 2.5 1.1 4.1 1.3q0.2 0 0.3 0c1.6 0 3-1.2 3.1-2.8 0.2-1.8-1.1-3.3-2.8-3.4z"/>
	<path class="s11" d="m393.1 446.6c-15.9 0-26.7-8.1-26.9-8.2-0.9-0.7-1.1-2-0.4-2.9 0.7-1 2-1.1 2.9-0.4 0.9 0.6 22.4 16.6 49.1-0.1 1-0.7 2.3-0.4 2.9 0.6 0.6 1 0.3 2.3-0.7 2.9-9.7 6.1-18.9 8.1-26.9 8.1z"/>
	<path fill-rule="evenodd" class="s13" d="m477.9 387c-19.9 0-36-11.9-36-26.5 0-14.7 16.1-26.5 36-26.5 19.9 0 36 11.8 36 26.5 0 14.6-16.1 26.5-36 26.5z"/>
	<path fill-rule="evenodd" class="s14" d="m311.7 387c-19.9 0-36-11.9-36-26.5 0-14.7 16.1-26.5 36-26.5 19.9 0 36 11.8 36 26.5 0 14.6-16.1 26.5-36 26.5z"/>
	<path class="s5" d="m257.2 269.2c-10.2-0.4-20-2.3-29.3-5.4 4.3 36.9 12.6 73.6 19.4 87.4l0.1-0.1c7.4-4.6 11.7-13.1 11.2-22-1.4-21.8-1.7-41.9-1.4-59.9z"/>
	<path class="s5" d="m531.4 270.8c0.6 20 0.5 40.6-0.3 58-0.3 7.4 2.5 14.5 7.8 19.3l3.4 3.1c7.1-14.4 14.1-54.6 17.7-93.4-8.6 5.9-18.3 10.4-28.6 13z"/>
	<path class="s0" d="m728.7 622.3c-20.8-43.7-160-25-216.1-47.8-56.1-22.9-56.1-133-56.1-133h-62.4-62.3c0 0 0 110.1-56.2 133-56.1 22.8-195.3 4.1-216.1 47.8-20.8 43.6-35.3 106-43.6 147.5h756.4c-8.3-41.5-22.8-103.9-43.6-147.5z"/>
	<path class="s1" d="m734.2 622.3c-19-39.7-136.3-27.9-199.9-42.5-54.7 28.4-100.3 38.4-137.3 38.8-37.1-0.4-82.6-10.4-137.3-38.8-63.6 14.6-181 2.8-199.9 42.5-20.9 43.6-35.6 106-43.9 147.5h762.2c-8.4-41.5-23-103.9-43.9-147.5z"/>
	<path class="s15" d="m388.6 561.8c56.2 0 81.6-18.3 88.9-22.6-21-40.5-21-97.7-21-97.7h-124.7c0 0 0 61.4-23.4 102 3.8 1.6 45.6 18.3 80.2 18.3z"/>
	<path class="s0" d="m211.5 317.6c20.5-27.7 67 17.5 67 17.5 0 0 28.9 33.7-4.7 74.5-16.8 20.4-36.2 5-49.2-19.2-13-24.3-27.7-52.9-13.1-72.8z"/>
	<path class="s3" d="m241 393.2c4.6 4.5 10.3 8.2 17.1 7 2.9-0.5 5.6-4.8 4.8-7.2-2-6-21.2-16.8-16.4-33.6 4.8-17-16.8-33.3-23.5-23.9-5.2 7.3 1.1 40.5 18 57.7z"/>
	<path class="s0" d="m576.5 317.6c-20.5-27.7-67 17.5-67 17.5 0 0-28.9 33.7 4.7 74.5 16.8 20.4 36.3 5 49.2-19.2 13-24.3 27.7-52.9 13.1-72.8z"/>
	<path class="s3" d="m547 393.2c-4.5 4.5-10.3 8.2-17.1 7-2.9-0.5-5.5-4.8-4.7-7.2 1.9-6 21.1-16.8 16.3-33.6-4.8-17 16.8-33.3 23.5-23.9 5.3 7.3-1.1 40.5-18 57.7z"/>
	<path class="s0" d="m545.8 185.8c-4-22.7-19.6-41.9-39.3-57.6-65.8-52.6-158.3-52.6-224.1 0-19.7 15.7-35.2 34.9-39.3 57.6 0 0-9.6 178.7 34.9 247.2 34.6 53.1 78 81.9 116.5 81.9 38.4 0 81.9-28.8 116.4-81.9 44.6-68.5 34.9-247.2 34.9-247.2z"/>
	<path class="s4" d="m258.4 329.4c-4.9-78.1 3.5-136.2 8-143.1 16.2-13.1 38.1-35.5 51.9-69 0 0 64.3 31.1 166 18.7 0 0 18.9 26.6 36 54 8.3 13.3 11.9 89.6 9.5 139.2-0.3 7.3 2.5 14.4 7.8 19.2l3.4 3c12.5-25.4 24.9-132.3 18.6-167.6-17.9-99.6-89.9-110.2-161.6-110.2-28.1 0-59.4 6.7-86.4 19.8-5.5-1.6-13.9-3.6-13.8-4.7-38.3 2.6-57.9 57.1-69.3 95.1-11.4 38.4 6.1 142.2 18.6 167.6l0.2-0.1c7.3-4.5 11.7-13 11.1-21.9z"/>
	<path class="s4" d="m299.9 128.4q5.4 2.4 10.6 4.9c2.8-5 5.4-10.3 7.8-16 0 0 64.3 31.1 166 18.7 0 0 16 22.6 31.9 47.6 16.7-5.5 26.7-10.2 39.1-18.4-23.2-82.4-90.4-91.6-157.4-91.6-28 0-59.3 6.7-86.3 19.8-5.5-1.6-13.9-3.6-13.8-4.7-11.6 0.8-21.6 6.5-30.1 15q0.2 0.1 0.4 0.4c8.4 10.6 19.4 18.9 31.8 24.3z"/>
	<path class="s4" d="m562.8 69.6c0 35-57.4 20.3-132.5-22.1-73.6-41.5-110.2-5.5-125.1 18.4 3.8-25 17.3-47.9 17.3-47.9-38.2 18-35.6 49-30.6 66.2-13.6-2.7-33.8-3.4-49.7 10.7 0 0 38.9-6.1 53.2 6.2 1.9 1.6 7.9 4.4 8.6 5.1 40.3 44.3 80.1 65.8 163 59.8 45.8-3.3 61-8.6 82.8-31.9 25.8-27.7 13-64.5 13-64.5z"/>
	<path class="s4" d="m467 166c43.1-3.1 59.2-8 79.1-28.1-29.7 2.5-63.1-10-86-30.6-0.8 11.4 4.9 26.7 20.2 44.2-36.6-6.1-69.1-17.5-99.6-41.9 6.1 12.2 12.3 32.4 18.4 38.5-18.9 0-69.3-22.1-80.6-27.1 35.9 34.1 75.5 50.3 148.5 45z"/>
	<path class="s11" d="m389.1 393c-4.6 0-9.3-0.9-13.2-2.5-7.1-2.8-11.5-7.4-12.5-12.9-1.3-7.9 23.3-115.9 23.2-116.4-0.3-1.6 0.8-3.3 2.5-3.6 1.7-0.3 3.4 0.8 3.7 2.5 0.4 2-24.1 111.2-23.2 116.4 0.5 3.3 3.7 6.3 8.6 8.2 7.5 3 17 2.7 21.5-0.8 1.4-1 3.3-0.8 4.4 0.6 1 1.4 0.8 3.3-0.6 4.4-3.8 2.9-9 4.1-14.4 4.1z"/>
	<path class="s12" d="m425 206c0 0 43.8 3.1 53.7 8.9 9.8 5.8 29.8 26.5 27.5 33.1-2.3 6.5-35-13.8-39.4-13.6-4.4 0.2-45.8-3-48.4-9.3-2.9-7.2-0.7-20 6.6-19.1z"/>
	<path class="s12" d="m361.2 206.2c0 0-43.9 2.5-53.8 8.2-9.9 5.6-29.9 26.1-27.6 32.7 2.3 6.5 35.1-13.4 39.5-13.1 4.4 0.3 45.9-2.4 48.4-8.6 3-7.2 0.8-20-6.5-19.2z"/>
	<path fill-rule="evenodd" class="s16" d="m476.9 387.1c-19.8 0-35.9-11.8-35.9-26.4 0-14.6 16.1-26.4 35.9-26.4 19.8 0 35.8 11.8 35.8 26.4 0 14.6-16 26.4-35.8 26.4z"/>
	<path fill-rule="evenodd" class="s17" d="m311.3 387.1c-19.8 0-35.8-11.8-35.8-26.4 0-14.6 16-26.4 35.8-26.4 19.9 0 35.9 11.8 35.9 26.4 0 14.6-16 26.4-35.9 26.4z"/>
	<path class="s4" d="m257.1 269.8c-10.2-0.4-20-2.3-29.2-5.4 4.3 36.7 12.5 73.3 19.3 87l0.1-0.1c7.3-4.5 11.7-13 11.1-21.9-1.4-21.7-1.7-41.7-1.3-59.6z"/>
	<path class="s4" d="m530.1 271.3c0.6 20 0.5 40.6-0.3 57.9-0.3 7.3 2.5 14.4 7.8 19.2l3.4 3c7-14.3 14-54.3 17.7-92.9-8.7 5.8-18.3 10.3-28.6 12.8z"/>
	<path class="s18" d="m325.6 394.8c0 0 75.3 27 124.9-7.1 0 0-3.8 59.9-59.2 62.7-36.8 1.9-58.7-26.6-65.7-55.6z"/>
	<path class="s7" d="m401.7 436.8c-25.1 2.5-35.6 1.2-55.3-6.2q0.3 1.5 0.5 3.1c-0.3-2-0.2-1.2 0 0 11 10.7 25.8 17.6 44.4 16.7 17.6-0.9 29.9-7.6 38.5-16.2q0.8-3.1 1.5-6.3c-7.1 3.1-19.1 7.8-29.6 8.9z"/>
	<path class="s7" d="m333.5 397.3c-0.2 2.8 3.9 15.2 4.5 17.2 49.9 19.9 82.2 9.7 98.9-2.1 0 0 6-13.9 6.3-20.3-39.3 21.6-90.4 10.6-109.7 5.2z"/>
	<path class="s19" d="m357.9 298.2c-17.9-14.8-34.8-21-50.1-18.4-12.2 2.1-20 9.3-23.7 13.4 0 0-6.7 8.1-12.7 5.6 0 0 7.9 6.7 14.1 5.3 1.4-0.1 2.7-0.7 3.5-2 0.1-0.1 6.8-6.6 20.2-8.9 12.8-2.2 27.4-0.1 43.4 13.1 0.8 0.6 1.7 1 2.7 1 1.3 0 2.7-0.7 3.6-2.1 1.4-2.2 1-5.3-1-7z"/>
	<path class="s19" d="m419.5 298.2c17.9-14.8 34.8-21 50.1-18.4 12.2 2.1 20 9.3 23.7 13.4q0 0 0 0c0 0 6.7 8.1 12.7 5.6 0 0-7.9 6.7-14.1 5.3-1.4-0.1-2.7-0.7-3.6-2 0-0.1-6.7-6.6-20.1-8.9-12.8-2.2-27.4-0.1-43.4 13.1-0.8 0.6-1.7 1-2.7 1-1.3 0-2.7-0.7-3.6-2.1-1.4-2.2-1-5.3 1-7z"/>
</svg>